<svg xmlns="http://www.w3.org/2000/svg"><symbol id="himnherword" viewBox="0 0 256 256"><path fill="#231f20" d="M51.3 144.8c0 .3-.3.5-1 .5H38.6c-.7 0-1.1-.1-1.1-.4s.9-.5 2.5-.6 1.4-.2 1.6-.5a8.8 8.8 0 0 0 .2-2.5v-15.7H25.5v15.3a6.3 6.3 0 0 0 .4 2.8 4.5 4.5 0 0 0 2.5.6c1 .1 1.4.3 1.4.5s-.3.5-1 .5H17c-.7 0-1-.1-1-.4s.3-.5 1-.6h1.5c.8 0 1.3-.2 1.5-.5a12.4 12.4 0 0 0 .2-3v-28.6a7.7 7.7 0 0 0-.3-2.9c-.1-.2-.7-.4-1.7-.4l-1.9-.2a.5.5 0 0 1-.3-.5c0-.3.2-.4.7-.4h12.1c.6 0 .9.2.9.5s-.5.5-1.7.5-1.9.1-2.1.4-.4 1.1-.4 2.6v12.4h16.3v-11.6a9.5 9.5 0 0 0-.4-3.4c-.3-.3-1.3-.5-3.1-.5s-.8-.1-.8-.4.3-.5.9-.5h11.8c.8 0 1.1.1 1.1.5s-.8.5-2.3.5h-1.1a.9.9 0 0 0-.6.6 10 10 0 0 0-.2 2.5v28.8a8 8 0 0 0 .3 3c.4.4 1.4.6 3.1.6s.8.2.8.5zm14.7.2c0 .3-.3.5-.9.5h-1.3l-2.7-.2h-5.7a.7.7 0 0 1-.6.3c-.4 0-.6-.2-.6-.4s.4-.6 1.1-.6 2.1-.1 2.2-.3a7.1 7.1 0 0 0 .2-2.2v-16.5c0-.9-.1-1.4-.1-1.6s-.3-.2-.7-.2h-2.1c-.4 0-.6-.2-.6-.4s.3-.4.9-.4a12.8 12.8 0 0 0 6.1-1.7l.6-.3a6.8 6.8 0 0 1 .4 3v17.3a11.7 11.7 0 0 0 .1 2.5.5.5 0 0 0 .5.5 8.2 8.2 0 0 0 2.4.2c.5 0 .8.2.8.5zm-4.1-33.7c0 1.7-.8 2.5-2.4 2.5a2.4 2.4 0 0 1-1.7-.7 2.5 2.5 0 0 1 1.7-4.2 2.1 2.1 0 0 1 2.4 2.4zm42.5 33.7c0 .3-.3.4-.9.4h-9.7c-.5 0-.7-.1-.7-.3s.2-.4.6-.4h1.8c.5-.1.8-.2.9-.4a10.5 10.5 0 0 0 .1-2.3v-13.4c0-2.1-.2-3.6-.8-4.5a3 3 0 0 0-2.8-1.3 5 5 0 0 0-2.6.8 4.6 4.6 0 0 0-1.7 2.2 50.7 50.7 0 0 0-.2 5.9V144a1 1 0 0 0 1 .7h1.5c.5 0 .7.1.7.4s-.2.3-.8.3h-9.7c-.4 0-.7-.1-.7-.4s.2-.3.4-.3h2.1c.6 0 .9-.2.9-.5v-15.9a8.5 8.5 0 0 0-.8-4.3 2.9 2.9 0 0 0-2.7-1.2A4.5 4.5 0 0 0 77 124a4.3 4.3 0 0 0-1.4 3.1v15.3a3.8 3.8 0 0 0 .3 2c.1.2.7.3 1.6.3h1c.4 0 .5.1.5.4s-.2.4-.7.4h-9.7c-.5 0-.8-.1-.8-.4s.2-.4.7-.4a8.4 8.4 0 0 0 2.4-.2c.2-.1.3-.3.4-.7v-14a33.5 33.5 0 0 0-.2-4.7c-.1-.5-.6-.7-1.6-.7h-1.7c-.5 0-.7-.1-.7-.4s0-.3.2-.4h1.8a18.2 18.2 0 0 0 3.1-.7 4.9 4.9 0 0 0 2.1-1q.6-.6.9-.6a.4.4 0 0 1 .3.4c0 .3.1 1.3.1 3.1a7.4 7.4 0 0 1 6.7-3.5c3.2 0 5.1 1.2 5.8 3.6a7.3 7.3 0 0 1 6.8-3.6c2.6 0 4.4 1 5.4 2.9a12.3 12.3 0 0 1 .7 5v13.3a6.2 6.2 0 0 0 .2 2.1l1.7.3h.9q.6-.3.6.1zm48.9-22.2c0 .2-.1.3-.4.4h-2.5a5.8 5.8 0 0 0-2.1.4c-.4.2-.6.8-.7 1.7a34.7 34.7 0 0 1-4.7 12.1 20.1 20.1 0 0 1 1.5 2.7c.9 1.7 1.7 2.8 2.5 3.2a14.7 14.7 0 0 0 4.9.8q1.2.2 1.2.6c0 .4-.3.5-.8.5l-5-.2h-1.6l-3.9.2-1.9-3.5-.2-.4a14.8 14.8 0 0 1-11.3 4.6c-3.6 0-6.5-.9-8.7-2.9a9.3 9.3 0 0 1-3.4-7.4c0-5.1 3.2-9.2 9.6-12.1l-.8-.8a31.2 31.2 0 0 1-3.4-4 6.6 6.6 0 0 1-.7-3 7.9 7.9 0 0 1 2.6-6.2 8.8 8.8 0 0 1 6.5-2.4 9.1 9.1 0 0 1 6.1 1.9 6.6 6.6 0 0 1 2.4 5.2c0 3.4-2.5 6.1-7.5 8.2l2.7 3.1a126.2 126.2 0 0 1 8.4 10.7c2.5-4.1 3.8-7.9 3.8-11.5 0-.8-.2-1.2-.5-1.3a12.1 12.1 0 0 0-3.5-.2c-1 0-1.6-.2-1.6-.6s.3-.4.9-.4h11.5c.4.3.6.4.6.6zm-14.4 17.5c-2.2-3.8-6.4-9.1-12.6-16.1a14.2 14.2 0 0 0-3.8 4.1 11.6 11.6 0 0 0-1.1 5.1 11.8 11.8 0 0 0 2.6 7.7 8.2 8.2 0 0 0 6.4 3.1 11.3 11.3 0 0 0 8.5-3.9zm-4.6-25.4a8.1 8.1 0 0 0-1.3-4.9 3.9 3.9 0 0 0-3.4-1.9 5.1 5.1 0 0 0-3.6 1.4 5.2 5.2 0 0 0-1.4 3.6c0 2.7 2 5.5 5.8 8.7a7.2 7.2 0 0 0 3.9-6.9zm66.5 29.9c0 .3-.4.5-1.1.5H188c-.7 0-1.1-.1-1.1-.4s.9-.5 2.5-.6 1.4-.2 1.6-.5a8.8 8.8 0 0 0 .2-2.5v-15.7h-16.3v15.3a6.3 6.3 0 0 0 .4 2.8c.3.3 1.1.5 2.6.6s1.4.3 1.4.5-.4.5-1.1.5h-11.7c-.8 0-1.1-.1-1.1-.4s.3-.5 1.1-.6h1.4c.8 0 1.3-.2 1.5-.5a12.4 12.4 0 0 0 .2-3v-28.6a13.3 13.3 0 0 0-.2-2.9 2.7 2.7 0 0 0-1.7-.4l-2-.2a.5.5 0 0 1-.3-.5c0-.3.2-.4.7-.4h12.1c.6 0 1 .2 1 .5s-.6.5-1.8.5-1.9.1-2.1.4a5.5 5.5 0 0 0-.4 2.6v12.4h16.3v-11.6c0-1.9-.1-3-.4-3.4s-1.3-.5-3.1-.5-.8-.1-.8-.4.3-.5.9-.5h11.8c.8 0 1.2.1 1.2.5s-.8.5-2.4.5h-1a.9.9 0 0 0-.7.6 10 10 0 0 0-.2 2.5v28.8a8 8 0 0 0 .3 3c.4.4 1.4.6 3.1.6s.9.2.9.5zm23.3-5.4a3.8 3.8 0 0 1-.8 1.9 11.4 11.4 0 0 1-1.7 2.3 8.3 8.3 0 0 1-6.2 2.4 10.3 10.3 0 0 1-8.1-3.6 12.1 12.1 0 0 1-3.3-8.7 13.1 13.1 0 0 1 3.1-9 9.9 9.9 0 0 1 7.7-3.6 9.7 9.7 0 0 1 6.5 2.3 7.6 7.6 0 0 1 2.7 5.7 20.8 20.8 0 0 1-4.6.2h-3.7l-6.5.2a20.4 20.4 0 0 0-.3 3.4c0 3.6.7 6.4 2.1 8.3a6.7 6.7 0 0 0 5.8 3 6.1 6.1 0 0 0 3.5-1 12.1 12.1 0 0 0 2.8-3.7c.2-.3.4-.5.6-.5a.4.4 0 0 1 .4.4zm-4.7-11c-.1-4.3-1.7-6.5-4.6-6.5s-4.7 2.2-5.5 6.5zm24.3-3.5a2.7 2.7 0 0 1-.7 2 2.5 2.5 0 0 1-2 .9 2.3 2.3 0 0 1-1.6-.6 2 2 0 0 1-.6-1.4 1.5 1.5 0 0 1 .5-1.3 1.8 1.8 0 0 0 .4-.8c0-.5-.4-.8-1.1-.8s-1.9.6-2.6 1.9-1.3 4.2-1.3 8.1v10.7a.8.8 0 0 0 .5.8 12.1 12.1 0 0 0 2.8.2c.4.1.6.2.6.4s-.3.4-.7.4h-10.5q-.9 0-.9-.3c0-.2.2-.3.7-.3h.8c1.2 0 1.9-.2 2.1-.5a7.2 7.2 0 0 0 .1-2v-14.9c0-2-.3-3.1-.9-3.5a7.7 7.7 0 0 0-2.8-.5q-.6 0-.6-.3c0-.3.1-.4.5-.4h2.7a9.8 9.8 0 0 0 4.4-1.1l.7-.3.5-.2a22.8 22.8 0 0 1 .2 2.6v1.1c1.1-2.5 2.8-3.7 4.8-3.7a4.2 4.2 0 0 1 2.9 1.1 3.1 3.1 0 0 1 1.1 2.7z"/></symbol></svg>