<svg xmlns="http://www.w3.org/2000/svg"><symbol id="fb-icon" viewBox="0 0 270.1 265.7"><rect width="236.9" height="236.91" x="16.6" y="12.3" fill="#7f6d6a" rx="60.8"/><path fill="#fff" d="M106.8 151.4h-4.6a4.2 4.2 0 0 1-4.3-4.2v-19.7a4.1 4.1 0 0 1 4.3-4.3h4.6v-20.4c0-31.1 19.3-48.4 45.1-48.4 11.5 0 23.3 4.9 27.1 8.5a4.6 4.6 0 0 1 .9 5.1l-9.4 18.4c-.6 1.5-3.3 2.4-5.1 1.5s-7.1-3.5-11.5-3.5c-9.3 0-13.1 7.5-13.1 18.4v20.4h20.4a4.1 4.1 0 0 1 4.2 4.3v19.7a4.2 4.2 0 0 1-4.2 4.2h-20.4v56.4a4.4 4.4 0 0 1-4.2 4.2H111a4.4 4.4 0 0 1-4.2-4.2z"/></symbol><symbol id="instagram-icon" viewBox="0 0 270.1 265.7"><rect width="225" height="225.04" x="21.6" y="20" fill="none" stroke="#7f6d6a" stroke-miterlimit="10" stroke-width="15" rx="60.8"/><circle cx="134.1" cy="132.5" r="56.4" fill="none" stroke="#7e6d6a" stroke-miterlimit="10" stroke-width="15"/><circle cx="196.8" cy="61.5" r="14.6" fill="none" stroke="#7e6d6a" stroke-miterlimit="10" stroke-width="8"/></symbol><symbol id="shopping-bag" viewBox="0 0 270.1 265.7"><path fill="#7e6d6a" d="M80.8 72.6H191a9 9 0 0 1 8.9 7.6l19.9 126.4c2.9 18.4-9.1 35.4-25.1 35.4H75.4c-16.1 0-28.2-17.3-25-35.9L72 80.1a8.9 8.9 0 0 1 8.8-7.5z"/><path fill="none" stroke="#7e6d6a" stroke-linecap="round" stroke-miterlimit="10" stroke-width="13" d="M95.3 96.1s-4.9-76.7 41.1-76.7 42.5 76.7 42.5 76.7"/><path fill="#fff" d="M113.6 184.5l4.5-8c.9-1.6 2.5-2.4 4-1.3s6.7 4.5 12.1 6.3v-17c-9.1-3.6-21.2-11.1-21.2-23.5 0-10.4 7.4-19.3 21.3-20.7V117a1.9 1.9 0 0 1 2-2h1.8a2 2 0 0 1 2 2v3.4a41.1 41.1 0 0 1 19.4 7.6c1.2.8 1 2.7.6 3.4l-6 8.8a2.1 2.1 0 0 1-2.9.6c-.7-.3-6.2-4.2-11.1-6.2v14.8c8.1 3.2 22.1 10.2 22.1 24.4 0 10.8-8.6 20.3-22.4 21.6v10.8a1.9 1.9 0 0 1-1.9 1.9h-1.8a1.9 1.9 0 0 1-2-1.9v-10.8c-11.5-.9-17.9-5.8-20.1-8s-1.3-1.4-.4-2.9zm20.4-51.2c-3.4.4-5.8 2.8-5.8 5.4s1.6 5.7 5.8 8.2zm11.8 42.6c0-3.2-1.9-6.3-5.5-8.8v15.3c3.2-.8 5.5-3.2 5.5-6.5z"/></symbol><symbol id="watch-icon" viewBox="0 0 270.1 265.7"><circle cx="133.2" cy="132.9" r="101" fill="none" stroke="#7e6d6a" stroke-linecap="round" stroke-miterlimit="10" stroke-width="13"/><path fill="#7e6d6a" d="M232.7 115.5h8.8a11.4 11.4 0 0 1 11.5 11.4v16.3a11.4 11.4 0 0 1-11.5 11.4h-9.7zM125.6 57.4l-5.8-9.1a.5.5 0 0 1 .4-.8h4.3c.2 0 .4.1.4.3l3.4 5.4 3.4-5.4a.5.5 0 0 1 .5-.3h4.2c.5 0 .8.4.5.8l-5.9 9.1 6.1 9.6c.3.4 0 .8-.5.8h-4a.5.5 0 0 1-.5-.3l-3.8-5.8-3.8 5.8a.5.5 0 0 1-.5.3h-4a.5.5 0 0 1-.5-.8zm14.7-9.3a.6.6 0 0 1 .6-.6h3.4a.6.6 0 0 1 .6.6v19.2a.6.6 0 0 1-.6.5h-3.4a.6.6 0 0 1-.6-.5zm9.6 0a.6.6 0 0 1 .5-.6h3.5a.6.6 0 0 1 .6.6v19.2a.6.6 0 0 1-.6.5h-3.5a.5.5 0 0 1-.5-.5zm67.2 84.1a.6.6 0 0 1 .5.6v3.5a.5.5 0 0 1-.5.5h-19.2a.6.6 0 0 1-.6-.5v-3.5a.6.6 0 0 1 .6-.6zm-34.5-70.5a.8.8 0 0 1 .8-.1l2.8 2.1a.5.5 0 0 1 .1.7L175.1 80a.6.6 0 0 1-.8.1l-2.8-2a.5.5 0 0 1-.1-.8zM99.3 76.4a.8.8 0 0 1-.1.8l-2.9 2a.5.5 0 0 1-.7-.1L84.3 63.5a.5.5 0 0 1 .1-.7l2.8-2.1a.6.6 0 0 1 .8.1zm67.4 116.3a.5.5 0 0 1 .1-.8l2.8-2.1a.7.7 0 0 1 .8.2l11.2 15.5a.6.6 0 0 1-.1.8l-2.8 2a.6.6 0 0 1-.8-.1zM101.1 213a.5.5 0 0 1-.7.3l-3.2-1.3a.6.6 0 0 1-.3-.8l7.4-17.7a.7.7 0 0 1 .7-.3l3.2 1.4a.5.5 0 0 1 .3.7zm-35.7-80.8a.6.6 0 0 1 .5.6v3.5a.5.5 0 0 1-.5.5H46.2a.6.6 0 0 1-.6-.5v-3.5a.6.6 0 0 1 .6-.6zm60 67.6c-.2-.4 0-.7.4-.7h3.9a.5.5 0 0 1 .5.3L135 210h.2l4.7-10.6a.5.5 0 0 1 .5-.3h3.9c.4 0 .7.3.5.7l-9.1 19.5a.7.7 0 0 1-.5.4h-.3a.7.7 0 0 1-.5-.4zm21.8-.2a.5.5 0 0 1 .5-.5h3.5a.5.5 0 0 1 .5.5v19.2a.6.6 0 0 1-.5.6h-3.5a.6.6 0 0 1-.5-.6zm59.9-108a.6.6 0 0 1 .7.4l1.2 3.2a.6.6 0 0 1-.3.8l-18 6.6a.6.6 0 0 1-.7-.4l-1.2-3.2a.5.5 0 0 1 .3-.7zm3.3 9a.6.6 0 0 1 .7.4l1.2 3.2a.5.5 0 0 1-.3.7l-18 6.6a.5.5 0 0 1-.7-.3l-1.2-3.3a.5.5 0 0 1 .3-.7zm5.6 64.6a.4.4 0 0 1 .1.7l-2.1 2.8a.8.8 0 0 1-.8.1l-15.1-11.9a.6.6 0 0 1-.1-.8l2.2-2.7a.5.5 0 0 1 .7-.1zm-5.9 7.5a.5.5 0 0 1 .1.8l-2.1 2.7a.6.6 0 0 1-.8.1l-15.1-11.9a.5.5 0 0 1-.1-.7l2.1-2.8a.8.8 0 0 1 .8-.1zm-5.9 7.5a.5.5 0 0 1 .1.8l-2.1 2.7a.5.5 0 0 1-.8.1L186.3 172a.6.6 0 0 1-.1-.8l2.1-2.7a.5.5 0 0 1 .8-.1zm-5.9 7.5a.6.6 0 0 1 .1.8l-2.1 2.8a.8.8 0 0 1-.8.1l-15.1-11.9a.6.6 0 0 1-.1-.8l2.1-2.7a.6.6 0 0 1 .8-.1zM64.6 150.5c.1-.4.6-.4.9-.1l2.5 2.9a1.3 1.3 0 0 1 .1.6l-4.9 10.5v.2l11.1-3.3a.7.7 0 0 1 .6.1l2.5 2.9c.3.4.2.8-.2.9l-20.8 5.9c-.1 0-.4 0-.5-.2l-.2-.2a.5.5 0 0 1-.1-.6zM79 166.9a.6.6 0 0 1 .8 0l2.2 2.7c.2.2.2.6 0 .7l-14.6 12.6a.4.4 0 0 1-.7-.1l-2.3-2.6a.6.6 0 0 1 0-.8zm6.2 7.2a.6.6 0 0 1 .8.1l2.3 2.6a.5.5 0 0 1-.1.8l-14.5 12.5a.6.6 0 0 1-.8 0l-2.3-2.6a.8.8 0 0 1 .1-.8zm6.3 7.3a.6.6 0 0 1 .8 0l2.2 2.6a.6.6 0 0 1 0 .8L80 197.4a.6.6 0 0 1-.8-.1l-2.3-2.6a.5.5 0 0 1 .1-.8zM66.2 96.5l-10.8-.3a.6.6 0 0 1-.4-.9l2.4-3.5.5-.2 6.3.3-2.5-5.9a.5.5 0 0 1 0-.5l2.4-3.5a.6.6 0 0 1 1 0l4.1 10 11.4.4a.5.5 0 0 1 .4.8l-2.2 3.3a.7.7 0 0 1-.5.3l-7-.2h-.1L74 103a.5.5 0 0 1-.1.5l-2.2 3.5a.6.6 0 0 1-1-.1z"/><circle cx="135.7" cy="133.7" r="7.2" fill="#7e6d6a"/><path fill="none" stroke="#7e6d6a" stroke-linecap="round" stroke-miterlimit="10" stroke-width="6" d="M105.4 92.9l26.8 35.7m2.9 6.5L111 182.9"/></symbol><symbol id="search-icon" viewBox="0 0 270.1 265.7"><circle cx="96.1" cy="107.1" r="56.4" fill="none" stroke="#7e6d6a" stroke-miterlimit="10" stroke-width="15"/><path fill="none" stroke="#7e6d6a" stroke-miterlimit="10" stroke-width="15" d="M140.5 139.3l78.5 53"/></symbol></svg>