<svg id="Layer_1" data-name="Layer 1" xmlns="http://www.w3.org/2000/svg" width="0.9in" height="0.9in" viewBox="0 0 64 64"><title>logo-64</title><path d="M19.1,39.8c0,.1-.2.2-.5.2h-5c-.3,0-.4-.1-.4-.2s.3-.2,1-.2l.7-.2a2.5,2.5,0,0,0,.1-1.1V31.6H8.1v6.5c0,.7,0,1.1.1,1.2l1.1.3c.4,0,.6.1.6.2s-.1.2-.5.2H4.5c-.3,0-.5-.1-.5-.2s.2-.2.5-.2h.6a.8.8,0,0,0,.6-.2c.1-.1.1-.5.1-1.3V25.9c0-.7,0-1.1-.1-1.2s-.3-.2-.7-.2H4.1c-.1,0-.1-.1-.1-.2s.1-.2.3-.2H9.4c.3,0,.5.1.5.2s-.3.2-.8.2a1.4,1.4,0,0,0-.9.2,2.5,2.5,0,0,0-.1,1.1V31H15V26.1a3.6,3.6,0,0,0-.2-1.5,2.4,2.4,0,0,0-1.3-.2c-.2,0-.3-.1-.3-.2s.1-.2.4-.2h5c.3,0,.5.1.5.2s-.4.2-1.1.2h-.4l-.3.2V38.1c0,.7,0,1.1.1,1.2s.6.3,1.3.3S19.1,39.6,19.1,39.8Z"/><path d="M40.5,30.4c0,.1,0,.1-.1.2H39.3a1.4,1.4,0,0,0-.9.2,1.5,1.5,0,0,0-.3.7,13.7,13.7,0,0,1-2,5.2l.7,1.1a3.3,3.3,0,0,0,1,1.4,5.1,5.1,0,0,0,2.1.3c.3,0,.5.1.5.3s-.1.2-.3.2H35.6a12.3,12.3,0,0,0-.8-1.5v-.2a6.3,6.3,0,0,1-4.8,2,5.5,5.5,0,0,1-3.7-1.2,3.9,3.9,0,0,1-1.4-3.2c0-2.2,1.3-3.9,4-5.2l-.3-.3a6.7,6.7,0,0,1-1.4-1.7,2.5,2.5,0,0,1-.3-1.3,3.3,3.3,0,0,1,1-2.6,3.9,3.9,0,0,1,2.8-1.1,3.6,3.6,0,0,1,2.6.9,2.6,2.6,0,0,1,1,2.2c0,1.4-1,2.6-3.2,3.5l1.2,1.3c1.3,1.5,2.5,3.1,3.6,4.5a9.8,9.8,0,0,0,1.6-4.8c0-.4-.1-.6-.2-.6H35.7c-.4,0-.7-.1-.7-.2l.4-.2h4.9Zm-6.1,7.5A40.3,40.3,0,0,0,29,31a8.6,8.6,0,0,0-1.6,1.8,4.6,4.6,0,0,0-.4,2.1,4.7,4.7,0,0,0,1.1,3.3,3.2,3.2,0,0,0,2.7,1.3A4.6,4.6,0,0,0,34.4,37.9ZM32.5,27a3.7,3.7,0,0,0-.6-2.1,1.9,1.9,0,0,0-1.5-.8,2,2,0,0,0-1.5.6,2.5,2.5,0,0,0-.6,1.6c0,1.1.9,2.3,2.5,3.7A3.2,3.2,0,0,0,32.5,27Z"/><path d="M60.8,39.8c0,.1-.2.2-.5.2h-5c-.3,0-.4-.1-.4-.2s.3-.2,1-.2l.7-.2a2.5,2.5,0,0,0,.1-1.1V31.6H49.8v6.5c0,.7,0,1.1.1,1.2l1.1.3c.4,0,.6.1.6.2s-.1.2-.5.2H46.2c-.4,0-.5-.1-.5-.2s.1-.2.5-.2h.6a.8.8,0,0,0,.6-.2c.1-.1.1-.5.1-1.3V25.9c0-.7,0-1.1-.1-1.2s-.3-.2-.7-.2h-.9c-.1,0-.1-.1-.1-.2s.1-.2.3-.2h5.1c.3,0,.5.1.5.2s-.3.2-.8.2a1.4,1.4,0,0,0-.9.2,2.5,2.5,0,0,0-.1,1.1V31h6.9V26.1a3.6,3.6,0,0,0-.2-1.5,2.4,2.4,0,0,0-1.3-.2c-.2,0-.3-.1-.3-.2s.1-.2.4-.2h5c.3,0,.5.1.5.2s-.4.2-1.1.2h-.4l-.3.2V38.1c0,.7,0,1.1.1,1.2s.6.3,1.3.3S60.8,39.6,60.8,39.8Z"/></svg>