<svg id="Layer_1" data-name="Layer 1" xmlns="http://www.w3.org/2000/svg" width="0.4in" height="0.4in" viewBox="0 0 32 32"><title>logo-32</title><path d="M9.9,18.8H8.1V15.2h-3v2.9c0,.3,0,.5.1.5H4.1V12.2H5.2c-.1.1-.1.2-.1.5V15h3V12.8c0-.3,0-.5-.1-.6H9.1v5.8c0,.3,0,.5.1.5h.5C9.8,18.7,9.9,18.7,9.9,18.8Z"/><path d="M19.2,14.7h-.9c-.1,0-.1.1-.1.3a9.2,9.2,0,0,1-.9,2.3l.3.4c.1.4.3.6.5.6a1.4,1.4,0,0,0,.9.2c.1,0,.2,0,.2.1H17.1l-.4-.6h0a2.9,2.9,0,0,1-2.1.8,2.1,2.1,0,0,1-1.6-.5,1.8,1.8,0,0,1-.6-1.4,2.5,2.5,0,0,1,1.7-2.2v-.2l-.6-.7a1.1,1.1,0,0,1-.2-.6,1.6,1.6,0,0,1,.5-1.1,1.7,1.7,0,0,1,1.2-.5,2.1,2.1,0,0,1,1.2.4,1.5,1.5,0,0,1,.4,1c0,.6-.5,1.1-1.4,1.5l.5.5,1.5,2a3.7,3.7,0,0,0,.8-2.1v-.2h-.7c-.2,0-.3,0-.3-.1h2.4ZM16.6,18a19,19,0,0,0-2.4-3,2.7,2.7,0,0,0-.7.8,2,2,0,0,0-.2.9,2.2,2.2,0,0,0,.5,1.4,1.4,1.4,0,0,0,1.2.6A2.1,2.1,0,0,0,16.6,18Zm-.9-4.7a2,2,0,0,0-.2-.9.8.8,0,0,0-.7-.4.9.9,0,0,0-.6.3.7.7,0,0,0-.3.6A2.2,2.2,0,0,0,15,14.5,1.1,1.1,0,0,0,15.7,13.3Z"/><path d="M28,18.8H26.2V15.2h-3v2.9a1.2,1.2,0,0,0,.1.5h.5c.2,0,.2.1.2.1H21.5s0-.1.2-.1h.5V12.2h1.1a2,2,0,0,0-.1.5V15h3V12.2h1.2c-.1,0-.1,0-.1.1s-.1.2-.1.4v5.4a1.2,1.2,0,0,0,.1.5h.6C28,18.7,28,18.7,28,18.8Z"/></svg>