<svg id="Layer_1" data-name="Layer 1" xmlns="http://www.w3.org/2000/svg" width="3.6in" height="3.6in" viewBox="0 0 256 256.3"><title>logo</title><path d="M72,156.7c0,.6-.6.8-1.8.8H49.3c-1.2,0-1.9-.2-1.9-.7s1.5-.9,4.5-1.1,2.5-.4,2.7-.8.4-1.9.4-4.4v-28H26.1v27.2c0,2.8.2,4.5.7,5.1s1.9.8,4.5,1,2.5.4,2.5.9-.6.8-1.9.8H11c-1.2,0-1.9-.2-1.9-.7s.7-.9,1.9-1l2.6-.2a3.8,3.8,0,0,0,2.7-.9c.2-.4.3-2.1.3-5.4V98.7c0-2.9-.1-4.6-.4-5.1s-1.3-.8-3-.9l-3.5-.3c-.4,0-.6-.3-.6-.8s.4-.8,1.3-.8H12c1.6.1,5.4.2,11.3.2h6.8l1.8-.2c1.1,0,1.7.3,1.7,1s-1,.8-3.1.8-3.3.3-3.8.8-.6,2-.6,4.5v22.2H55V99.4c0-3.4-.2-5.4-.8-6s-2.3-.9-5.3-.8q-1.5,0-1.5-.9c0-.6.6-.9,1.7-.9H70c1.3,0,2,.3,2,.9s-1.4.9-4.2.9l-1.8.2a1.5,1.5,0,0,0-1.2,1.1,18.2,18.2,0,0,0-.3,4.5v51.1c0,3,.2,4.8.5,5.4s2.5,1,5.5,1C71.5,155.8,72,156,72,156.7Z"/><path d="M161.7,117.5c0,.4-.2.6-.7.7l-4.4.3a9.6,9.6,0,0,0-3.9.6,4.7,4.7,0,0,0-1.2,3,60.2,60.2,0,0,1-8.4,21.6c1.3,2,2.2,3.6,2.8,4.7,1.6,3.1,3,5,4.5,5.8s4.3,1.2,8.7,1.4c1.3.1,2,.5,2,1.1s-.5.8-1.4.8l-8.8-.2h-3l-6.9.3a55.5,55.5,0,0,0-3.2-6.1l-.5-.8c-5.1,5.5-11.8,8.2-20.1,8.2-6.3,0-11.5-1.7-15.4-5.1a16.5,16.5,0,0,1-6-13.2c0-9.1,5.6-16.3,16.9-21.6l-1.2-1.3a51.8,51.8,0,0,1-6.1-7.1,10.9,10.9,0,0,1-1.2-5.5,14.7,14.7,0,0,1,4.4-11,16.4,16.4,0,0,1,11.6-4.2c4.5,0,8.2,1.1,11,3.5a11.3,11.3,0,0,1,4.2,9.1c0,6.1-4.5,10.9-13.4,14.5l4.8,5.6a231.9,231.9,0,0,1,14.9,19c4.5-7.3,6.8-14.1,6.8-20.3,0-1.5-.3-2.3-.8-2.5a33.3,33.3,0,0,0-6.2-.3c-1.9,0-2.9-.3-2.9-1s.6-.8,1.7-.8h20.3C161.3,116.9,161.7,117.2,161.7,117.5Zm-25.6,31.2c-3.9-6.8-11.4-16.3-22.4-28.6a22.4,22.4,0,0,0-6.7,7.3,19.3,19.3,0,0,0-2,9,21,21,0,0,0,4.6,13.7,14.3,14.3,0,0,0,11.4,5.4A20,20,0,0,0,136.1,148.7ZM128,103.4a14.9,14.9,0,0,0-2.4-8.7,7.2,7.2,0,0,0-6.1-3.3,8.4,8.4,0,0,0-6.3,2.5,8.6,8.6,0,0,0-2.5,6.4c0,4.7,3.4,9.8,10.4,15.4Q128,112,128,103.4Z"/><path d="M246,156.7c0,.6-.6.8-1.8.8H223.4c-1.3,0-1.9-.2-1.9-.7s1.5-.9,4.4-1.1,2.5-.4,2.8-.8a14.7,14.7,0,0,0,.4-4.4v-28H200.2v27.2q0,4.2.6,5.1c.5.5,2,.8,4.5,1s2.5.4,2.5.9-.6.8-1.9.8H185.1c-1.3,0-1.9-.2-1.9-.7s.6-.9,1.9-1l2.6-.2a3.8,3.8,0,0,0,2.7-.9c.2-.4.3-2.1.3-5.4V98.7c0-2.9-.2-4.6-.5-5.1s-1.3-.8-3-.9l-3.5-.3c-.4,0-.5-.3-.5-.8s.4-.8,1.2-.8H186c1.6.1,5.4.2,11.4.2h6.8l1.7-.2c1.2,0,1.7.3,1.7,1s-1,.8-3.1.8-3.3.3-3.7.8-.6,2-.6,4.5v22.2h28.9V99.4c0-3.4-.3-5.4-.8-6s-2.3-.9-5.4-.8c-.9,0-1.4-.3-1.4-.9s.5-.9,1.6-.9H244c1.4,0,2,.3,2,.9s-1.4.9-4.2.9l-1.8.2a1.9,1.9,0,0,0-1.2,1.1,20.9,20.9,0,0,0-.2,4.5v51.1c0,3,.1,4.8.4,5.4s2.5,1,5.5,1C245.5,155.8,246,156,246,156.7Z"/></svg>