<svg id="Layer_1" data-name="Layer 1" xmlns="http://www.w3.org/2000/svg" width="0.2in" height="0.2in" viewBox="0 0 16 16"><title>logo-16</title><path d="M14.5,6.5H13c-.1,0-.2.2-.2.5a11.3,11.3,0,0,1-1.4,3.6l.5.8a1.7,1.7,0,0,0,.7.9l1.4.2.4.2a.2.2,0,0,1-.2.2H11l-.5-1.1h-.1a4.4,4.4,0,0,1-3.3,1.4,3.7,3.7,0,0,1-2.6-.9,2.6,2.6,0,0,1-1-2.2c0-1.5.9-2.7,2.8-3.6l-.2-.2-1-1.2a2,2,0,0,1-.2-.9,2.3,2.3,0,0,1,.7-1.8,2.7,2.7,0,0,1,2-.7,2.8,2.8,0,0,1,1.8.6A1.7,1.7,0,0,1,10.1,4c0,1-.7,1.8-2.2,2.4l.8.9,2.4,3.2a6.4,6.4,0,0,0,1.2-3.4c0-.2-.1-.4-.2-.4h2.4Zm-4.3,5.2A34.8,34.8,0,0,0,6.5,6.9,4,4,0,0,0,5.4,8.1,2.8,2.8,0,0,0,5,9.6a3.4,3.4,0,0,0,.8,2.3,2.3,2.3,0,0,0,1.9.9A3.1,3.1,0,0,0,10.2,11.7ZM8.9,4.2a3.3,3.3,0,0,0-.4-1.5,1.2,1.2,0,0,0-1-.6,1.4,1.4,0,0,0-1.1.5,1.2,1.2,0,0,0-.4,1A3.8,3.8,0,0,0,7.7,6.2,2.1,2.1,0,0,0,8.9,4.2Z"/></svg>